<svg style="position: absolute; width: 0; height: 0;" width="0" height="0" version="1.1" xmlns="http://www.w3.org/2000/svg" xmlns:xlink="http://www.w3.org/1999/xlink">
<defs>
<symbol id="icon-bottom" viewBox="0 0 1024 1024">
	<title>bottom</title>
	<path class="path1" d="M0 331.776l151.552-151.552 360.448 360.448 360.448-360.448 151.552 151.552-512 512-151.552-151.552z"></path>
</symbol>
<symbol id="icon-right" viewBox="0 0 662 1024">
	<title>right</title>
	<path class="path1" d="M-0.776 872.448l360.448-360.448-360.448-360.448 151.552-151.552 512 512-512 512z"></path>
</symbol>
<symbol id="icon-left" viewBox="0 0 662 1024">
	<title>left</title>
	<path class="path1" d="M-0.776 512l512-512 151.552 151.552-360.448 360.448 360.448 360.448-151.552 151.552-360.448-360.448z"></path>
</symbol>
<symbol id="icon-out" viewBox="0 0 1024 1024">
	<title>out</title>
	<path class="path1" d="M804.864 610.432v183.296q0 67.584-48.128 116.736t-116.736 48.128h-475.136q-67.584 0-116.736-48.128t-48.128-116.736v-475.136q0-67.584 48.128-116.736t116.736-48.128h402.432q8.192 0 13.312 5.12t5.12 13.312v36.864q0 8.192-5.12 13.312t-13.312 5.12h-402.432q-37.888 0-64.512 26.624t-26.624 64.512v475.136q0 37.888 26.624 64.512t64.512 26.624h475.136q37.888 0 64.512-26.624t26.624-64.512v-183.296q0-8.192 5.12-13.312t13.312-5.12h36.864q8.192 0 13.312 5.12t5.12 13.312zM1024 116.864v292.864q0 15.36-11.264 25.6t-25.6 11.264-25.6-11.264l-100.352-100.352-372.736 372.736q-6.144 6.144-13.312 6.144t-13.312-6.144l-65.536-65.536q-6.144-6.144-6.144-13.312t6.144-13.312l372.736-372.736-100.352-100.352q-11.264-11.264-11.264-25.6t11.264-25.6 25.6-11.264h292.864q15.36 0 25.6 11.264t11.264 25.6z"></path>
</symbol>
<symbol id="icon-info" viewBox="0 0 942 1024">
	<title>info</title>
	<path class="path1" d="M464.856 40.96q194.56-2.048 333.824 133.12t143.36 329.728q2.048 194.56-134.144 334.848t-330.752 144.384q-194.56 2.048-334.848-134.144t-142.336-330.752q-4.096-194.56 133.12-334.848t331.776-142.336zM518.104 196.608q-43.008 0-66.56 24.576t-23.552 51.2q-2.048 28.672 15.36 45.056t50.176 16.384q38.912 0 62.464-22.528t23.552-55.296q0-59.392-61.44-59.392zM395.224 804.864q30.72 0 86.016-26.624t108.544-79.872l-18.432-24.576q-49.152 36.864-73.728 36.864-14.336 0-4.096-38.912l43.008-163.84q26.624-98.304-22.528-98.304-30.72 0-91.136 29.696t-117.76 76.8l16.384 26.624q53.248-34.816 75.776-34.816 12.288 0 0 34.816l-36.864 155.648q-26.624 106.496 34.816 106.496z"></path>
</symbol>
<symbol id="icon-top" viewBox="0 0 1024 1024">
	<title>top</title>
	<path class="path1" d="M0 692.224l512-512 512 512-151.552 151.552-360.448-360.448-360.448 360.448z"></path>
</symbol>
<symbol id="icon-user" viewBox="0 0 962 1024">
	<title>user</title>
	<path class="path1" d="M753.384 739.328q208.896 73.728 208.896 124.928v108.544h-962.56v-108.544q0-51.2 208.896-124.928 96.256-34.816 131.072-70.656t34.816-97.28q0-22.528-22.528-50.176t-32.768-74.752q-2.048-12.288-9.216-18.432t-14.336-8.192-14.336-17.408-9.216-44.032q0-16.384 5.12-26.624t9.216-12.288l4.096-4.096q-8.192-51.2-12.288-90.112-4.096-55.296 41.984-114.688t160.768-59.392 161.792 59.392 40.96 114.688l-12.288 90.112q18.432 8.192 18.432 43.008-2.048 28.672-9.216 44.032t-14.336 17.408-14.336 8.192-9.216 18.432q-8.192 49.152-31.744 75.776t-23.552 49.152q0 61.44 35.84 97.28t130.048 70.656z"></path>
</symbol>
<symbol id="icon-remove" viewBox="0 0 1024 1024">
	<title>remove</title>
	<path class="path1" d="M192 1024h640l64-704h-768zM640 128v-128h-256v128h-320v192l64-64h768l64 64v-192h-320zM576 128h-128v-64h128v64z"></path>
</symbol>
<symbol id="icon-numbered-list" viewBox="0 0 1024 1024">
	<title>numbered-list</title>
	<path class="path1" d="M384 832h640v128h-640zM384 448h640v128h-640zM384 64h640v128h-640zM192 0v256h-64v-192h-64v-64zM128 526v50h128v64h-192v-146l128-60v-50h-128v-64h192v146zM256 704v320h-192v-64h128v-64h-128v-64h128v-64h-128v-64z"></path>
</symbol>
<symbol id="icon-close" viewBox="0 0 1024 1024">
	<title>close</title>
	<path class="path1" d="M1014.662 822.66c-0.004-0.004-0.008-0.008-0.012-0.010l-310.644-310.65 310.644-310.65c0.004-0.004 0.008-0.006 0.012-0.010 3.344-3.346 5.762-7.254 7.312-11.416 4.246-11.376 1.824-24.682-7.324-33.83l-146.746-146.746c-9.148-9.146-22.45-11.566-33.828-7.32-4.16 1.55-8.070 3.968-11.418 7.31 0 0.004-0.004 0.006-0.008 0.010l-310.648 310.652-310.648-310.65c-0.004-0.004-0.006-0.006-0.010-0.010-3.346-3.342-7.254-5.76-11.414-7.31-11.38-4.248-24.682-1.826-33.83 7.32l-146.748 146.748c-9.148 9.148-11.568 22.452-7.322 33.828 1.552 4.16 3.97 8.072 7.312 11.416 0.004 0.002 0.006 0.006 0.010 0.010l310.65 310.648-310.65 310.652c-0.002 0.004-0.006 0.006-0.008 0.010-3.342 3.346-5.76 7.254-7.314 11.414-4.248 11.376-1.826 24.682 7.322 33.83l146.748 146.746c9.15 9.148 22.452 11.568 33.83 7.322 4.16-1.552 8.070-3.97 11.416-7.312 0.002-0.004 0.006-0.006 0.010-0.010l310.648-310.65 310.648 310.65c0.004 0.002 0.008 0.006 0.012 0.008 3.348 3.344 7.254 5.762 11.414 7.314 11.378 4.246 24.684 1.826 33.828-7.322l146.746-146.748c9.148-9.148 11.57-22.454 7.324-33.83-1.552-4.16-3.97-8.068-7.314-11.414z"></path>
</symbol>
<symbol id="icon-checkmark" viewBox="0 0 1024 1024">
	<title>checkmark</title>
	<path class="path1" d="M864 128l-480 480-224-224-160 160 384 384 640-640z"></path>
</symbol>
<symbol id="icon-minus" viewBox="0 0 1024 1024">
	<title>minus</title>
	<path class="path1" d="M0 416v192c0 17.672 14.328 32 32 32h960c17.672 0 32-14.328 32-32v-192c0-17.672-14.328-32-32-32h-960c-17.672 0-32 14.328-32 32z"></path>
</symbol>
<symbol id="icon-plus" viewBox="0 0 1024 1024">
	<title>plus</title>
	<path class="path1" d="M992 384h-352v-352c0-17.672-14.328-32-32-32h-192c-17.672 0-32 14.328-32 32v352h-352c-17.672 0-32 14.328-32 32v192c0 17.672 14.328 32 32 32h352v352c0 17.672 14.328 32 32 32h192c17.672 0 32-14.328 32-32v-352h352c17.672 0 32-14.328 32-32v-192c0-17.672-14.328-32-32-32z"></path>
</symbol>
<symbol id="icon-play" viewBox="0 0 1024 1024">
	<title>play</title>
	<path class="path1" d="M192 128l640 384-640 384z"></path>
</symbol>
<symbol id="icon-pause" viewBox="0 0 1024 1024">
	<title>pause</title>
	<path class="path1" d="M128 128h320v768h-320zM576 128h320v768h-320z"></path>
</symbol>
<symbol id="icon-stop" viewBox="0 0 1024 1024">
	<title>stop</title>
	<path class="path1" d="M128 128h768v768h-768z"></path>
</symbol>
<symbol id="icon-backward" viewBox="0 0 1024 1024">
	<title>backward</title>
	<path class="path1" d="M576 160v320l320-320v704l-320-320v320l-352-352z"></path>
</symbol>
<symbol id="icon-forward" viewBox="0 0 1024 1024">
	<title>forward</title>
	<path class="path1" d="M512 864v-320l-320 320v-704l320 320v-320l352 352z"></path>
</symbol>
<symbol id="icon-first" viewBox="0 0 1024 1024">
	<title>first</title>
	<path class="path1" d="M128 896v-768h128v352l320-320v320l320-320v704l-320-320v320l-320-320v352z"></path>
</symbol>
<symbol id="icon-last" viewBox="0 0 1024 1024">
	<title>last</title>
	<path class="path1" d="M896 128v768h-128v-352l-320 320v-320l-320 320v-704l320 320v-320l320 320v-352z"></path>
</symbol>
<symbol id="icon-volume-high" viewBox="0 0 1088 1024">
	<title>volume-high</title>
	<path class="path1" d="M890.040 922.040c-12.286 0-24.568-4.686-33.942-14.058-18.744-18.746-18.744-49.136 0-67.882 87.638-87.642 135.904-204.16 135.904-328.1 0-123.938-48.266-240.458-135.904-328.098-18.744-18.746-18.744-49.138 0-67.882s49.138-18.744 67.882 0c105.77 105.772 164.022 246.4 164.022 395.98 0 149.582-58.252 290.208-164.022 395.98-9.372 9.374-21.656 14.060-33.94 14.060zM719.53 831.53c-12.286 0-24.568-4.686-33.942-14.058-18.744-18.744-18.744-49.136 0-67.882 131.006-131.006 131.006-344.17 0-475.176-18.744-18.746-18.744-49.138 0-67.882 18.744-18.742 49.138-18.744 67.882 0 81.594 81.592 126.53 190.076 126.53 305.468 0 115.39-44.936 223.876-126.53 305.47-9.372 9.374-21.656 14.060-33.94 14.060zM549.020 741.020c-12.286 0-24.568-4.686-33.942-14.058-18.746-18.746-18.746-49.136 0-67.882 81.1-81.1 81.1-213.058 0-294.156-18.746-18.746-18.746-49.138 0-67.882s49.136-18.744 67.882 0c118.53 118.53 118.53 311.392 0 429.922-9.372 9.37-21.656 14.056-33.94 14.056zM401.332 78.668c25.668-25.668 46.668-16.968 46.668 19.332v828c0 36.3-21 44.998-46.668 19.33l-241.332-241.33h-160v-384h160l241.332-241.332z"></path>
</symbol>
<symbol id="icon-volume-mute" viewBox="0 0 1024 1024">
	<title>volume-mute</title>
	<path class="path1" d="M401.332 78.668c25.668-25.668 46.668-16.968 46.668 19.332v828c0 36.3-21 44.998-46.668 19.33l-241.332-241.33h-160v-384h160l241.332-241.332zM960 619.148v84.852h-84.852l-107.148-107.148-107.148 107.148h-84.852v-84.852l107.148-107.148-107.148-107.148v-84.852h84.852l107.148 107.148 107.148-107.148h84.852v84.852l-107.148 107.148z"></path>
</symbol>
<symbol id="icon-volume-increase" viewBox="0 0 1024 1024">
	<title>volume-increase</title>
	<path class="path1" d="M428.164 63.918c11.976 0 19.836 11.878 19.838 34.082v828c0 22.206-7.856 34.082-19.836 34.082-7.604 0-16.868-4.788-26.834-14.752l-241.332-241.33h-160v-384h160l241.332-241.332c9.966-9.966 19.228-14.75 26.832-14.75zM1024 576h-192v192h-128v-192h-192v-128h192v-192h128v192h192z"></path>
</symbol>
<symbol id="icon-volume-decrease" viewBox="0 0 1024 1024">
	<title>volume-decrease</title>
	<path class="path1" d="M428.164 63.918c11.976 0 19.836 11.878 19.838 34.082v828c0 22.206-7.856 34.082-19.836 34.082-7.604 0-16.868-4.788-26.834-14.752l-241.332-241.33h-160v-384h160l241.332-241.332c9.966-9.966 19.228-14.75 26.832-14.75zM512 448h512v128h-512z"></path>
</symbol>
<symbol id="icon-loop" viewBox="0 0 1024 1024">
	<title>loop</title>
	<path class="path1" d="M874.022 149.98c-92.652-92.656-220.636-149.98-362.022-149.98-219.488 0-406.69 138.128-479.498 332.188l119.876 44.954c54.604-145.546 195.006-249.142 359.622-249.142 106.040 0 202.020 43 271.506 112.494l-143.506 143.506h384v-384l-149.978 149.98zM512 896c-106.040 0-202.026-42.992-271.512-112.488l143.512-143.512h-384v384l149.994-149.994c92.646 92.662 220.618 149.994 362.006 149.994 219.49 0 406.692-138.128 479.5-332.188l-119.876-44.954c-54.604 145.546-195.006 249.142-359.624 249.142z"></path>
</symbol>
<symbol id="icon-github" viewBox="0 0 1024 1024">
	<title>github</title>
	<path class="path1" d="M263.472 759.368c0 27.052 22.894 40.582 68.668 40.582 40.064 0 60.088-14.042 60.088-42.134 0-26.538-21.846-39.796-65.544-39.796-42.146-0.004-63.212 13.776-63.212 41.348zM853.348 0h-682.66c-93.876 0-170.688 76.81-170.688 170.688v682.626c0 93.936 76.812 170.686 170.688 170.686h682.66c93.868 0 170.652-76.75 170.652-170.688v-682.624c0-93.878-76.782-170.688-170.652-170.688zM475.728 408.988c-7.284 2.604-17.688 5.458-31.212 8.586 4.16 11.966 6.246 23.152 6.246 33.554 0 33.292-10.018 62.298-30.044 87.012-20.030 24.708-45.912 39.406-77.646 44.086-20.804 3.126-31.208 14.312-31.208 33.558 0 6.762 3.378 13.53 10.144 20.29 8.844 9.886 21.848 16.132 39.018 18.734 74.39 11.442 111.586 42.394 111.586 92.854 0 80.642-48.124 120.962-144.362 120.962-39.542 0-72.056-7.026-97.544-21.070-32.258-17.688-48.376-45.52-48.376-83.5 0-43.704 24.192-73.616 72.564-89.738v-1.56c-17.684-10.924-26.526-27.57-26.526-49.944 0-29.132 8.324-47.344 24.968-54.622v-1.562c-16.646-5.724-31.474-18.732-44.48-39.024-14.564-21.852-21.85-45.26-21.85-70.23 0-37.458 13.27-68.67 39.792-93.64 25.496-23.414 55.928-35.116 91.306-35.116 25.494 0 49.158 6.238 71.010 18.722 24.97 0 53.842-6.24 86.626-18.722l-0.012 80.37zM602.178 678.994h-88.186c1.042-10.402 1.558-28.084 1.558-53.064v-242.692c0-24.454-0.522-41.364-1.558-50.718h88.186c-1.042 9.884-1.562 26.27-1.562 49.164v239.564c0 26.534 0.522 45.784 1.562 57.746zM596.318 254.482c-10.664 11.444-23.282 17.162-37.846 17.162-15.086 0-27.958-5.718-38.626-17.162-10.666-11.452-16.002-24.972-16.002-40.578 0-16.134 5.336-29.912 16.002-41.366 10.666-11.442 23.54-17.168 38.626-17.168 14.564 0 27.184 5.726 37.846 17.168 10.666 11.456 15.998 25.23 15.998 41.366 0 15.606-5.332 29.128-15.998 40.578zM841.69 668.848c-19.254 10.41-42.406 15.606-69.458 15.606-37.97 0-64.248-13.52-78.81-40.574-10.93-20.29-16.386-52.28-16.386-95.98v-139.684h0.778v-1.562l-11.706-0.782c-6.764 0-15.612 0.782-26.534 2.342v-75.694h38.234v-30.432c0-14.57-0.778-26.28-2.34-35.12h90.518c-1.55 9.88-2.336 21.066-2.336 33.552v31.998h67.886v75.692c-2.598 0-7.41-0.258-14.436-0.778-7.024-0.522-13.656-0.786-19.898-0.786h-33.554v145.144c0 34.864 11.45 52.29 34.334 52.29 16.126 0 30.696-4.418 43.708-13.264v78.032zM321.216 400.406c-32.776 0-49.164 19.254-49.164 57.746 0 35.902 16.388 53.848 49.164 53.848 31.736 0 47.602-18.208 47.602-54.626 0-15.090-3.64-28.094-10.922-39.022-8.846-11.962-21.074-17.946-36.68-17.946z"></path>
</symbol>
</defs>
</svg>
