<svg style="position: absolute; width: 0; height: 0;" width="0" height="0" version="1.1" xmlns="http://www.w3.org/2000/svg" xmlns:xlink="http://www.w3.org/1999/xlink">
<defs>
<symbol id="icon-rewind" viewBox="0 0 1024 1024">
	<title>rewind</title>
	<path class="path1" d="M913.053 542.353c0.386-229.307-185.289-415.933-414.596-415.933l-0.179 58.846 14.888 0.858c53.42 2.283 104.733 16.284 150.853 40.634l25.599 14.861c21.477 13.764 41.791 30.135 60.302 48.703 18.718 18.951 35.208 39.51 49.032 61.426l14.801 25.806c24.057 46.006 37.489 96.84 39.597 149.847l-58.933-0.087-0.060 29.662 58.966 0.087c-2.314 53.035-16.105 103.782-40.129 149.729l-14.861 25.952c-13.97 21.862-30.461 42.416-49.205 61.28-18.565 18.508-38.798 34.616-60.508 48.467l-25.599 15.008c-46.212 24.203-97.552 38.027-150.972 40.162l0.060-59.318-29.662-0.028-0.060 58.966c-58.221-2.52-113.776-18.924-163.074-47.548l-0.12 66.912c53.893 25.686 114.135 40.189 177.901 40.281 229.307 0.386 415.547-185.289 415.899-414.563v0z"></path>
	<path class="path2" d="M496.828 956.948c229.273 0.712 415.187-184.637 416.585-413.885 0.358-56.293-58.846-0.299-58.846-0.299l-0.858 14.888c-2.374 53.42-16.463 104.7-40.9 150.792l-14.888 25.567c-13.791 21.417-30.194 41.731-48.819 60.183-18.951 18.718-39.51 35.175-61.459 48.972l-25.833 14.713c-46.062 23.997-96.933 37.372-149.935 39.39l0.179-58.933-29.629-0.12-0.179 58.966c-53.062-2.401-103.782-16.284-149.669-40.341l-25.925-14.921c-21.83-13.997-42.356-30.52-61.188-49.298-18.478-18.598-34.556-38.857-48.347-60.568l-14.981-25.658c-24.117-46.239-37.875-97.612-39.922-151.032l59.318 0.147 0.087-29.662-118.763-0.206c0 0 0-5.1 0 14.682 0 229.333 184.637 415.873 413.911 416.61h0.060z"></path>
	<path class="path3" d="M428.701 77.661v70.356l70.383-70.356v154.742l-70.383-70.323v70.323l-77.358-77.358 77.358-77.384z"></path>
</symbol>
<symbol id="icon-user" viewBox="0 0 1024 1024">
	<title>user</title>
	<path class="path1" d="M622.826 702.736c-22.11-3.518-22.614-64.314-22.614-64.314s64.968-64.316 79.128-150.802c38.090 0 61.618-91.946 23.522-124.296 1.59-34.054 48.96-267.324-190.862-267.324s-192.45 233.27-190.864 267.324c-38.094 32.35-14.57 124.296 23.522 124.296 14.158 86.486 79.128 150.802 79.128 150.802s-0.504 60.796-22.614 64.314c-71.22 11.332-337.172 128.634-337.172 257.264h896c0-128.63-265.952-245.932-337.174-257.264z"></path>
</symbol>
<symbol id="icon-spinner" viewBox="0 0 1024 1024">
	<title>spinner</title>
	<path class="path1" d="M1024 384h-384l143.53-143.53c-72.53-72.526-168.96-112.47-271.53-112.47s-199 39.944-271.53 112.47c-72.526 72.53-112.47 168.96-112.47 271.53s39.944 199 112.47 271.53c72.53 72.526 168.96 112.47 271.53 112.47s199-39.944 271.528-112.472c6.056-6.054 11.86-12.292 17.456-18.668l96.32 84.282c-93.846 107.166-231.664 174.858-385.304 174.858-282.77 0-512-229.23-512-512s229.23-512 512-512c141.386 0 269.368 57.326 362.016 149.984l149.984-149.984v384z"></path>
</symbol>
<symbol id="icon-settings" viewBox="0 0 1024 1024">
	<title>settings</title>
	<path class="path1" d="M448 128v-16c0-26.4-21.6-48-48-48h-160c-26.4 0-48 21.6-48 48v16h-192v128h192v16c0 26.4 21.6 48 48 48h160c26.4 0 48-21.6 48-48v-16h576v-128h-576zM256 256v-128h128v128h-128zM832 432c0-26.4-21.6-48-48-48h-160c-26.4 0-48 21.6-48 48v16h-576v128h576v16c0 26.4 21.6 48 48 48h160c26.4 0 48-21.6 48-48v-16h192v-128h-192v-16zM640 576v-128h128v128h-128zM448 752c0-26.4-21.6-48-48-48h-160c-26.4 0-48 21.6-48 48v16h-192v128h192v16c0 26.4 21.6 48 48 48h160c26.4 0 48-21.6 48-48v-16h576v-128h-576v-16zM256 896v-128h128v128h-128z"></path>
</symbol>
<symbol id="icon-list" viewBox="0 0 1024 1024">
	<title>list</title>
	<path class="path1" d="M0 0h256v256h-256zM384 64h640v128h-640zM0 384h256v256h-256zM384 448h640v128h-640zM0 768h256v256h-256zM384 832h640v128h-640z"></path>
</symbol>
<symbol id="icon-numbered-list" viewBox="0 0 1024 1024">
	<title>numbered-list</title>
	<path class="path1" d="M384 832h640v128h-640zM384 448h640v128h-640zM384 64h640v128h-640zM192 0v256h-64v-192h-64v-64zM128 526v50h128v64h-192v-146l128-60v-50h-128v-64h192v146zM256 704v320h-192v-64h128v-64h-128v-64h128v-64h-128v-64z"></path>
</symbol>
<symbol id="icon-close" viewBox="0 0 1024 1024">
	<title>close</title>
	<path class="path1" d="M1014.662 822.66c-0.004-0.004-0.008-0.008-0.012-0.010l-310.644-310.65 310.644-310.65c0.004-0.004 0.008-0.006 0.012-0.010 3.344-3.346 5.762-7.254 7.312-11.416 4.246-11.376 1.824-24.682-7.324-33.83l-146.746-146.746c-9.148-9.146-22.45-11.566-33.828-7.32-4.16 1.55-8.070 3.968-11.418 7.31 0 0.004-0.004 0.006-0.008 0.010l-310.648 310.652-310.648-310.65c-0.004-0.004-0.006-0.006-0.010-0.010-3.346-3.342-7.254-5.76-11.414-7.31-11.38-4.248-24.682-1.826-33.83 7.32l-146.748 146.748c-9.148 9.148-11.568 22.452-7.322 33.828 1.552 4.16 3.97 8.072 7.312 11.416 0.004 0.002 0.006 0.006 0.010 0.010l310.65 310.648-310.65 310.652c-0.002 0.004-0.006 0.006-0.008 0.010-3.342 3.346-5.76 7.254-7.314 11.414-4.248 11.376-1.826 24.682 7.322 33.83l146.748 146.746c9.15 9.148 22.452 11.568 33.83 7.322 4.16-1.552 8.070-3.97 11.416-7.312 0.002-0.004 0.006-0.006 0.010-0.010l310.648-310.65 310.648 310.65c0.004 0.002 0.008 0.006 0.012 0.008 3.348 3.344 7.254 5.762 11.414 7.314 11.378 4.246 24.684 1.826 33.828-7.322l146.746-146.748c9.148-9.148 11.57-22.454 7.324-33.83-1.552-4.16-3.97-8.068-7.314-11.414z"></path>
</symbol>
<symbol id="icon-minus" viewBox="0 0 1024 1024">
	<title>minus</title>
	<path class="path1" d="M0 416v192c0 17.672 14.328 32 32 32h960c17.672 0 32-14.328 32-32v-192c0-17.672-14.328-32-32-32h-960c-17.672 0-32 14.328-32 32z"></path>
</symbol>
<symbol id="icon-plus" viewBox="0 0 1024 1024">
	<title>plus</title>
	<path class="path1" d="M992 384h-352v-352c0-17.672-14.328-32-32-32h-192c-17.672 0-32 14.328-32 32v352h-352c-17.672 0-32 14.328-32 32v192c0 17.672 14.328 32 32 32h352v352c0 17.672 14.328 32 32 32h192c17.672 0 32-14.328 32-32v-352h352c17.672 0 32-14.328 32-32v-192c0-17.672-14.328-32-32-32z"></path>
</symbol>
<symbol id="icon-play" viewBox="0 0 1024 1024">
	<title>play</title>
	<path class="path1" d="M192 128l640 384-640 384z"></path>
</symbol>
<symbol id="icon-pause" viewBox="0 0 1024 1024">
	<title>pause</title>
	<path class="path1" d="M128 128h320v768h-320zM576 128h320v768h-320z"></path>
</symbol>
<symbol id="icon-stop" viewBox="0 0 1024 1024">
	<title>stop</title>
	<path class="path1" d="M128 128h768v768h-768z"></path>
</symbol>
<symbol id="icon-backward" viewBox="0 0 1024 1024">
	<title>backward</title>
	<path class="path1" d="M576 160v320l320-320v704l-320-320v320l-352-352z"></path>
</symbol>
<symbol id="icon-forward" viewBox="0 0 1024 1024">
	<title>forward</title>
	<path class="path1" d="M512 864v-320l-320 320v-704l320 320v-320l352 352z"></path>
</symbol>
<symbol id="icon-first" viewBox="0 0 1024 1024">
	<title>first</title>
	<path class="path1" d="M128 896v-768h128v352l320-320v320l320-320v704l-320-320v320l-320-320v352z"></path>
</symbol>
<symbol id="icon-last" viewBox="0 0 1024 1024">
	<title>last</title>
	<path class="path1" d="M896 128v768h-128v-352l-320 320v-320l-320 320v-704l320 320v-320l320 320v-352z"></path>
</symbol>
<symbol id="icon-previous" viewBox="0 0 1024 1024">
	<title>previous</title>
	<path class="path1" d="M256 896v-768h128v352l320-320v704l-320-320v352z"></path>
</symbol>
<symbol id="icon-next" viewBox="0 0 1024 1024">
	<title>next</title>
	<path class="path1" d="M768 128v768h-128v-352l-320 320v-704l320 320v-352z"></path>
</symbol>
<symbol id="icon-eject" viewBox="0 0 1024 1024">
	<title>eject</title>
	<path class="path1" d="M0 768h1024v128h-1024zM512 128l512 512h-1024z"></path>
</symbol>
<symbol id="icon-volume-high" viewBox="0 0 1088 1024">
	<title>volume-high</title>
	<path class="path1" d="M890.040 922.040c-12.286 0-24.568-4.686-33.942-14.058-18.744-18.746-18.744-49.136 0-67.882 87.638-87.642 135.904-204.16 135.904-328.1 0-123.938-48.266-240.458-135.904-328.098-18.744-18.746-18.744-49.138 0-67.882s49.138-18.744 67.882 0c105.77 105.772 164.022 246.4 164.022 395.98 0 149.582-58.252 290.208-164.022 395.98-9.372 9.374-21.656 14.060-33.94 14.060zM719.53 831.53c-12.286 0-24.568-4.686-33.942-14.058-18.744-18.744-18.744-49.136 0-67.882 131.006-131.006 131.006-344.17 0-475.176-18.744-18.746-18.744-49.138 0-67.882 18.744-18.742 49.138-18.744 67.882 0 81.594 81.592 126.53 190.076 126.53 305.468 0 115.39-44.936 223.876-126.53 305.47-9.372 9.374-21.656 14.060-33.94 14.060zM549.020 741.020c-12.286 0-24.568-4.686-33.942-14.058-18.746-18.746-18.746-49.136 0-67.882 81.1-81.1 81.1-213.058 0-294.156-18.746-18.746-18.746-49.138 0-67.882s49.136-18.744 67.882 0c118.53 118.53 118.53 311.392 0 429.922-9.372 9.37-21.656 14.056-33.94 14.056zM401.332 78.668c25.668-25.668 46.668-16.968 46.668 19.332v828c0 36.3-21 44.998-46.668 19.33l-241.332-241.33h-160v-384h160l241.332-241.332z"></path>
</symbol>
<symbol id="icon-volume-medium" viewBox="0 0 1024 1024">
	<title>volume-medium</title>
	<path class="path1" d="M719.53 831.53c-12.286 0-24.568-4.686-33.942-14.058-18.744-18.744-18.744-49.136 0-67.882 131.006-131.006 131.006-344.17 0-475.176-18.744-18.746-18.744-49.138 0-67.882 18.744-18.742 49.138-18.744 67.882 0 81.594 81.592 126.53 190.076 126.53 305.468 0 115.39-44.936 223.876-126.53 305.47-9.372 9.374-21.656 14.060-33.94 14.060zM549.020 741.020c-12.286 0-24.568-4.686-33.942-14.058-18.746-18.746-18.746-49.136 0-67.882 81.1-81.1 81.1-213.058 0-294.156-18.746-18.746-18.746-49.138 0-67.882s49.136-18.744 67.882 0c118.53 118.53 118.53 311.392 0 429.922-9.372 9.37-21.656 14.056-33.94 14.056zM401.332 78.668c25.668-25.668 46.668-16.968 46.668 19.332v828c0 36.3-21 44.998-46.668 19.33l-241.332-241.33h-160v-384h160l241.332-241.332z"></path>
</symbol>
<symbol id="icon-volume-mute" viewBox="0 0 1024 1024">
	<title>volume-mute</title>
	<path class="path1" d="M401.332 78.668c25.668-25.668 46.668-16.968 46.668 19.332v828c0 36.3-21 44.998-46.668 19.33l-241.332-241.33h-160v-384h160l241.332-241.332zM960 619.148v84.852h-84.852l-107.148-107.148-107.148 107.148h-84.852v-84.852l107.148-107.148-107.148-107.148v-84.852h84.852l107.148 107.148 107.148-107.148h84.852v84.852l-107.148 107.148z"></path>
</symbol>
<symbol id="icon-volume-increase" viewBox="0 0 1024 1024">
	<title>volume-increase</title>
	<path class="path1" d="M428.164 63.918c11.976 0 19.836 11.878 19.838 34.082v828c0 22.206-7.856 34.082-19.836 34.082-7.604 0-16.868-4.788-26.834-14.752l-241.332-241.33h-160v-384h160l241.332-241.332c9.966-9.966 19.228-14.75 26.832-14.75zM1024 576h-192v192h-128v-192h-192v-128h192v-192h128v192h192z"></path>
</symbol>
<symbol id="icon-volume-decrease" viewBox="0 0 1024 1024">
	<title>volume-decrease</title>
	<path class="path1" d="M428.164 63.918c11.976 0 19.836 11.878 19.838 34.082v828c0 22.206-7.856 34.082-19.836 34.082-7.604 0-16.868-4.788-26.834-14.752l-241.332-241.33h-160v-384h160l241.332-241.332c9.966-9.966 19.228-14.75 26.832-14.75zM512 448h512v128h-512z"></path>
</symbol>
<symbol id="icon-loop" viewBox="0 0 1024 1024">
	<title>loop</title>
	<path class="path1" d="M874.022 149.98c-92.652-92.656-220.636-149.98-362.022-149.98-219.488 0-406.69 138.128-479.498 332.188l119.876 44.954c54.604-145.546 195.006-249.142 359.622-249.142 106.040 0 202.020 43 271.506 112.494l-143.506 143.506h384v-384l-149.978 149.98zM512 896c-106.040 0-202.026-42.992-271.512-112.488l143.512-143.512h-384v384l149.994-149.994c92.646 92.662 220.618 149.994 362.006 149.994 219.49 0 406.692-138.128 479.5-332.188l-119.876-44.954c-54.604 145.546-195.006 249.142-359.624 249.142z"></path>
</symbol>
<symbol id="icon-loop2" viewBox="0 0 1024 1024">
	<title>loop2</title>
	<path class="path1" d="M320 640v-192h192l-256-256-256 256h192v320h384l-128-128zM832 576v-320h-384l128 128h128v192h-192l256 256 256-256z"></path>
</symbol>
</defs>
</svg>
